<svg id="Warstwa_143" data-name="Warstwa 143" xmlns="http://www.w3.org/2000/svg" width="35.667" height="33.495" viewBox="0 0 35.667 33.495">
  <g id="Group_270" data-name="Group 270">
    <path id="Path_273" data-name="Path 273" d="M314.009,106.64l-2.661-2.661.738-.738,1.922,1.922,3.883-3.883.738.738Z" transform="translate(-287.06 -77.774)" fill="#00aa45"></path>
    <path id="Path_274" data-name="Path 274" d="M309.026,98.188A9.444,9.444,0,0,1,311,96.544a12.559,12.559,0,0,0-5.75-4.656,7.384,7.384,0,1,0-9.282,0,12.549,12.549,0,0,0-7.882,11.615v.261h2.56V103.5a9.954,9.954,0,0,1,18.375-5.316Zm-8.412-7.207a4.825,4.825,0,1,1,4.825-4.825A4.831,4.831,0,0,1,300.614,90.981Z" transform="translate(-288.091 -78.772)" fill="#00aa45"></path>
    <path id="Path_275" data-name="Path 275" d="M315.163,111.5a7.737,7.737,0,1,1,7.737-7.737A7.747,7.747,0,0,1,315.163,111.5Zm0-13.386a5.649,5.649,0,1,0,5.649,5.649A5.655,5.655,0,0,0,315.163,98.116Z" transform="translate(-287.234 -78.007)" fill="#00aa45"></path>
  </g>
</svg>
