<svg xmlns="http://www.w3.org/2000/svg" width="19.8" height="30.5" viewBox="0 0 19.8 30.5">
  <g id="Group_196" data-name="Group 196" opacity="0.8">
    <path id="Path_80" data-name="Path 80" d="M9.9,0A9.859,9.859,0,0,0,0,9.9c0,9.2,8.8,19.9,9.2,20.3a.967.967,0,0,0,1.4,0c.4-.4,9.2-11.1,9.2-20.3A9.923,9.923,0,0,0,9.9,0Zm8,9.9c0,7.1-6.1,15.6-8,18.2-2-2.6-8-11.1-8-18.2a8,8,0,1,1,16,0Z" fill="#00aa45"></path>
    <path id="Path_81" data-name="Path 81" d="M9.9,3.5a6.4,6.4,0,1,0,6.4,6.4A6.445,6.445,0,0,0,9.9,3.5Zm4.6,6.4a4.653,4.653,0,0,1-4.6,4.6A4.653,4.653,0,0,1,5.3,9.9,4.653,4.653,0,0,1,9.9,5.3,4.653,4.653,0,0,1,14.5,9.9Z" fill="#00aa45"></path>
  </g>
</svg>
