<svg xmlns="http://www.w3.org/2000/svg" width="29.853" height="19.9" viewBox="0 0 29.853 19.9">
  <g id="Group_252" data-name="Group 252" transform="translate(-64.022 -1339.87)" opacity="0.8">
    <path id="Path_248" data-name="Path 248" d="M89.9,1359.77H67.957a3.989,3.989,0,0,1-3.935-3.973v-11.956a3.976,3.976,0,0,1,3.972-3.971H89.9a3.976,3.976,0,0,1,3.972,3.971V1355.8A3.977,3.977,0,0,1,89.9,1359.77Zm0-1.75a2.225,2.225,0,0,0,2.222-2.223v-11.956a2.225,2.225,0,0,0-2.222-2.221H67.994a2.225,2.225,0,0,0-2.222,2.221V1355.8a2.231,2.231,0,0,0,2.2,2.223Z" fill="#00aa45"></path>
    <rect id="Rectangle_220" data-name="Rectangle 220" width="22.482" height="3" transform="translate(67.707 1346.197)" fill="#00aa45"></rect>
    <rect id="Rectangle_221" data-name="Rectangle 221" width="6.723" height="0.5" transform="translate(67.707 1353.23)" fill="#00aa45"></rect>
  </g>
</svg>
