<svg id="Group_288" data-name="Group 288" xmlns="http://www.w3.org/2000/svg" width="35.667" height="33.494" viewBox="0 0 35.667 33.494">
  <path id="Path_278" data-name="Path 278" d="M309.026-6.556A9.413,9.413,0,0,1,311-8.2a12.561,12.561,0,0,0-5.75-4.657A7.4,7.4,0,0,0,308-18.589a7.392,7.392,0,0,0-7.384-7.383,7.392,7.392,0,0,0-7.384,7.383,7.4,7.4,0,0,0,2.743,5.732A12.552,12.552,0,0,0,288.091-1.24v.261h2.56V-1.24a9.975,9.975,0,0,1,9.963-9.964A9.956,9.956,0,0,1,309.026-6.556Zm-8.412-7.208a4.83,4.83,0,0,1-4.825-4.825,4.831,4.831,0,0,1,4.825-4.825,4.83,4.83,0,0,1,4.825,4.825A4.83,4.83,0,0,1,300.614-13.764Z" transform="translate(-288.091 25.972)" fill="#00aa45"></path>
  <path id="Path_279" data-name="Path 279" d="M315.163,6.757a7.748,7.748,0,0,1-7.738-7.737,7.748,7.748,0,0,1,7.738-7.737A7.747,7.747,0,0,1,322.9-.981,7.747,7.747,0,0,1,315.163,6.757Zm0-13.386a5.656,5.656,0,0,0-5.65,5.649,5.655,5.655,0,0,0,5.65,5.649,5.655,5.655,0,0,0,5.649-5.649A5.656,5.656,0,0,0,315.163-6.629Z" transform="translate(-287.234 26.737)" fill="#00aa45"></path>
  <g id="Group_273" data-name="Group 273" transform="translate(25.131 22.972)">
    <rect id="Rectangle_228" data-name="Rectangle 228" width="0.828" height="2.212" transform="matrix(0.707, -0.707, 0.707, 0.707, 3.441, 3.972)" fill="#00aa45"></rect>
    <path id="Path_280" data-name="Path 280" d="M317.107-3.937,314.97-1.8l-2.176-2.176-.585.585,2.176,2.175-2.229,2.23.585.585,4.952-4.952Z" transform="translate(-312.156 3.975)" fill="#00aa45"></path>
  </g>
</svg>
