<svg id="Group_284" data-name="Group 284" xmlns="http://www.w3.org/2000/svg" width="35.321" height="27.027" viewBox="0 0 35.321 27.027">
  <path id="Path_298" data-name="Path 298" d="M306.72,263.351a9.2,9.2,0,0,1,.167-1.716H290.936l7.185-7.185,3.571,3.569,3.57-3.569,3.348,3.348q.282-.368.6-.7l-3.294-3.294,7.325-7.324v8.1a9.136,9.136,0,0,1,1.839-.354v-10.16H288.306v19.414h18.42C306.726,263.433,306.72,263.393,306.72,263.351Zm5.79-17.451-10.818,10.818L290.873,245.9Zm-22.363.575,7.324,7.324-7.324,7.324Z" transform="translate(-288.306 -244.061)" fill="#00aa45"></path>
  <path id="Path_299" data-name="Path 299" d="M315.047,270.6a7.737,7.737,0,1,1,7.737-7.737A7.747,7.747,0,0,1,315.047,270.6Zm0-13.386a5.649,5.649,0,1,0,5.649,5.649A5.655,5.655,0,0,0,315.047,257.212Z" transform="translate(-287.464 -243.571)" fill="#00aa45"></path>
  <path id="Path_301" data-name="Path 301" d="M317.492,259.989a1.624,1.624,0,0,0-2.3,0l-2.86,2.861-.112.111-.02.157-.233,1.88-.072.584.584-.072,1.88-.233.157-.02.111-.112,2.861-2.86A1.625,1.625,0,0,0,317.492,259.989Zm-5.065,5.065.226-1.819,1.594,1.594Zm4.741-3.093-2.814,2.813-.512-.512,2.833-2.833-.081-.08-2.833,2.833-.461-.462,2.832-2.833-.08-.081-2.833,2.833-.512-.512,2.813-2.814a1.165,1.165,0,1,1,1.648,1.648Z" transform="translate(-287.26 -243.376)" fill="#00aa45"></path>
</svg>
