<svg xmlns="http://www.w3.org/2000/svg" width="35.665" height="33.494" viewBox="0 0 35.665 33.494">
  <g id="Group_290" data-name="Group 290" transform="translate(0)">
    <g id="Group_289" data-name="Group 289">
      <path id="Path_302" data-name="Path 302" d="M374.4,51.725a9.466,9.466,0,0,1,1.978-1.644,12.552,12.552,0,0,0-5.749-4.657,7.385,7.385,0,1,0-9.283,0,12.552,12.552,0,0,0-7.88,11.616V57.3h2.559V57.04A9.954,9.954,0,0,1,374.4,51.725Zm-8.413-7.207a4.825,4.825,0,1,1,4.826-4.825A4.831,4.831,0,0,1,365.985,44.518Z" transform="translate(-353.464 -32.309)" fill="#00aa45"></path>
      <path id="Path_303" data-name="Path 303" d="M380.535,65.038a7.738,7.738,0,1,1,7.737-7.738A7.747,7.747,0,0,1,380.535,65.038Zm0-13.387a5.649,5.649,0,1,0,5.649,5.649A5.656,5.656,0,0,0,380.535,51.652Z" transform="translate(-352.608 -31.545)" fill="#00aa45"></path>
    </g>
    <path id="Path_304" data-name="Path 304" d="M383.037,54.386a1.624,1.624,0,0,0-2.3,0l-2.861,2.861-.111.111-.02.157-.233,1.88-.072.584.584-.072,1.88-.233.156-.02.112-.112,2.861-2.86A1.627,1.627,0,0,0,383.037,54.386Zm-5.065,5.065.224-1.819,1.595,1.594Zm4.74-3.093L379.9,59.171l-.512-.512,2.832-2.833-.08-.08-2.833,2.833-.462-.462,2.833-2.833L381.6,55.2l-2.832,2.833-.513-.512,2.814-2.814a1.165,1.165,0,0,1,1.647,1.648Z" transform="translate(-352.402 -31.352)" fill="#00aa45"></path>
  </g>
</svg>
