<svg xmlns="http://www.w3.org/2000/svg" width="26.9" height="27.1" viewBox="0 0 26.9 27.1">
  <g id="Group_197" data-name="Group 197" opacity="0.8">
    <path id="Path_82" data-name="Path 82" d="M22.4,19.8c-.5-.3-1.2-.7-1.9-1.1l-1.1-.6c-.1,0-.2-.1-.3-.2a5.736,5.736,0,0,0-.7-.4,3.091,3.091,0,0,0-.8-.2,2.7,2.7,0,0,0-1.7,1,17.41,17.41,0,0,0-1.2,1.4q-.15.3-.3.3c-.1,0-.1,0-.1-.1-.1,0-.2-.1-.3-.2s-.2-.1-.3-.2A10.956,10.956,0,0,1,10.1,17a16.758,16.758,0,0,1-2.6-3.5,1.238,1.238,0,0,1-.2-.3c-.1-.1-.1-.2-.2-.3a.31.31,0,0,0-.1-.2l.1-.1a5.008,5.008,0,0,1,.8-.7,5.241,5.241,0,0,0,1.1-1,2.062,2.062,0,0,0,.7-1.4,1.884,1.884,0,0,0-.2-.8c.1-.2-.1-.4-.2-.7l-.2-.2c0-.1-.2-.3-.3-.6a4.671,4.671,0,0,1-.5-1,6.726,6.726,0,0,1-.7-1.1A7.018,7.018,0,0,0,7,4.2a1.12,1.12,0,0,0-.8-.7,1.165,1.165,0,0,0-.7-.2A6.077,6.077,0,0,0,3,3.9,4.614,4.614,0,0,0,.8,6.4,8.347,8.347,0,0,0,0,9.6a2.769,2.769,0,0,0,.1.9c0,.3.1.5.1.7a3.091,3.091,0,0,0,.2.8,2.544,2.544,0,0,1,.2.7l.3.7a1.421,1.421,0,0,1,.2.6A20.516,20.516,0,0,0,6,21.2,19.75,19.75,0,0,0,13.2,26a3.933,3.933,0,0,1,.6.2,2.389,2.389,0,0,1,.7.3c.1.1.4.1.7.2a3.091,3.091,0,0,0,.8.2c.2,0,.4.1.7.1s.6.1.9.1a8.347,8.347,0,0,0,3.2-.8,4.614,4.614,0,0,0,2.5-2.2,5.869,5.869,0,0,0,.5-2.5,1.483,1.483,0,0,0-.1-.7A2.471,2.471,0,0,0,22.4,19.8ZM5.1,12.7a1.952,1.952,0,0,0,.1.7c.1.2.1.3.2.4,0,.1.1.2.2.4.1.1.1.2.2.3a16.5,16.5,0,0,0,2.9,3.9,17.781,17.781,0,0,0,3.8,2.8,1.439,1.439,0,0,1,.3.2c.2.1.3.2.4.2.1.1.2.1.4.2.9.3,1.5.1,2.4-.9.4-.5.8-.9,1.2-1.4l.3-.3c.1,0,.2.1.4.2a.914.914,0,0,0,.5.3l1.1.6a12.971,12.971,0,0,1,1.8,1,1.38,1.38,0,0,1,.4.3,3.167,3.167,0,0,1-.4,1.6,3.247,3.247,0,0,1-1.5,1.2,6.026,6.026,0,0,1-2.4.6h-.6c-.2,0-.4-.1-.6-.1a3.933,3.933,0,0,1-.6-.2c-.3-.1-.5-.1-.6-.2s-.4-.1-.7-.3a3.224,3.224,0,0,1-.6-.2,18.277,18.277,0,0,1-6.5-4.4,18.877,18.877,0,0,1-4.4-6.4c0-.1-.1-.3-.2-.7l-.3-.7a3.933,3.933,0,0,0-.2-.6c-.1-.3-.1-.5-.2-.6.1,0,.1-.2.1-.4V9.6a6.026,6.026,0,0,1,.6-2.4A3.247,3.247,0,0,1,3.8,5.7a5.929,5.929,0,0,1,1.7-.4h0a9.223,9.223,0,0,0,.5.8,8.794,8.794,0,0,0,.6,1c.1.3.3.6.4.9a1.546,1.546,0,0,1,.3.6c0,.1.2.2.3.5.1.2.2.3.2.4a.349.349,0,0,0-.1.2,5.008,5.008,0,0,1-.8.7c-.4.3-.7.6-1.1.9A2.1,2.1,0,0,0,5.1,12.7Z" fill="#00aa45"></path>
    <path id="Path_83" data-name="Path 83" d="M20,14.3a1,1,0,0,0,1,1,.945.945,0,0,0,1-1,9.389,9.389,0,0,0-9.4-9.4,1,1,0,0,0-1,1,.945.945,0,0,0,1,1A7.383,7.383,0,0,1,20,14.3Z" fill="#00aa45"></path>
    <path id="Path_84" data-name="Path 84" d="M12.5,0a1,1,0,0,0-1,1,.945.945,0,0,0,1,1A12.462,12.462,0,0,1,24.9,14.4a1,1,0,0,0,1,1,.945.945,0,0,0,1-1A14.468,14.468,0,0,0,12.5,0Z" fill="#00aa45"></path>
  </g>
</svg>
