<svg id="Group_285" data-name="Group 285" xmlns="http://www.w3.org/2000/svg" width="35.321" height="27.027" viewBox="0 0 35.321 27.027">
  <path id="Path_295" data-name="Path 295" d="M306.72,224.161a9.113,9.113,0,0,1,.167-1.716H290.936l7.185-7.185,3.571,3.57,3.57-3.57,3.349,3.348a9.122,9.122,0,0,1,.6-.7l-3.295-3.294,7.325-7.324v8.1a9.141,9.141,0,0,1,1.839-.354v-10.16H288.306v19.414h18.42C306.726,224.243,306.72,224.2,306.72,224.161Zm5.79-17.45-10.818,10.817-10.818-10.817Zm-22.363.574,7.324,7.324-7.324,7.324Z" transform="translate(-288.306 -204.871)" fill="#00aa45"/>
  <path id="Path_296" data-name="Path 296" d="M315.047,231.408a7.737,7.737,0,1,1,7.737-7.737A7.747,7.747,0,0,1,315.047,231.408Zm0-13.386a5.649,5.649,0,1,0,5.649,5.649A5.656,5.656,0,0,0,315.047,218.022Z" transform="translate(-287.464 -204.381)" fill="#00aa45"/>
  <g id="Group_280" data-name="Group 280" transform="translate(24.061 15.819)">
    <rect id="Rectangle_233" data-name="Rectangle 233" width="2.213" height="0.828" transform="translate(4.79 3.022)" fill="#00aa45"/>
    <path id="Path_297" data-name="Path 297" d="M314.422,223.04h-3.077v.828h3.077v3.153h.828v-7h-.828Z" transform="translate(-311.345 -220.018)" fill="#00aa45"/>
  </g>
</svg>
