<svg id="Group_276" data-name="Group 276" xmlns="http://www.w3.org/2000/svg" width="35.667" height="33.495" viewBox="0 0 35.667 33.495">
  <path id="Path_281" data-name="Path 281" d="M309.026-50.165A9.445,9.445,0,0,1,311-51.809a12.559,12.559,0,0,0-5.75-4.656A7.4,7.4,0,0,0,308-62.2a7.393,7.393,0,0,0-7.384-7.384,7.393,7.393,0,0,0-7.384,7.384,7.4,7.4,0,0,0,2.743,5.732,12.549,12.549,0,0,0-7.882,11.615v.261h2.56v-.261a9.974,9.974,0,0,1,9.963-9.963A9.955,9.955,0,0,1,309.026-50.165Zm-8.412-7.207a4.831,4.831,0,0,1-4.825-4.825,4.831,4.831,0,0,1,4.825-4.826,4.83,4.83,0,0,1,4.825,4.826A4.83,4.83,0,0,1,300.614-57.372Z" transform="translate(-288.091 69.581)" fill="#00aa45"/>
  <path id="Path_282" data-name="Path 282" d="M315.163-36.851a7.748,7.748,0,0,1-7.738-7.737,7.748,7.748,0,0,1,7.738-7.738,7.748,7.748,0,0,1,7.737,7.738A7.747,7.747,0,0,1,315.163-36.851Zm0-13.387a5.656,5.656,0,0,0-5.65,5.65,5.656,5.656,0,0,0,5.65,5.649,5.656,5.656,0,0,0,5.649-5.649A5.656,5.656,0,0,0,315.163-50.238Z" transform="translate(-287.234 70.346)" fill="#00aa45"/>
  <g id="Group_275" data-name="Group 275" transform="translate(24.406 22.285)">
    <rect id="Rectangle_229" data-name="Rectangle 229" width="2.213" height="0.828" transform="translate(4.79 3.022)" fill="#00aa45"/>
    <path id="Path_283" data-name="Path 283" d="M314.538-45.22h-3.077v.828h3.077v3.154h.828v-7h-.828Z" transform="translate(-311.461 48.241)" fill="#00aa45"/>
  </g>
</svg>
