<svg xmlns="http://www.w3.org/2000/svg" width="37.901" height="37.901" viewBox="0 0 37.901 37.901">
  <g id="Group_306" data-name="Group 306" opacity="0.9">
    <path id="Path_314" data-name="Path 314" d="M208.851,171.391A18.95,18.95,0,1,0,227.8,190.342,18.95,18.95,0,0,0,208.851,171.391Zm0,35.616a16.665,16.665,0,1,1,16.665-16.665A16.665,16.665,0,0,1,208.851,207.007Z" transform="translate(-189.901 -171.391)" fill="#414ea8"/>
    <path id="Path_315" data-name="Path 315" d="M201.133,198.457v-18.9h6.177a7.167,7.167,0,0,1,4.629,1.273,4.583,4.583,0,0,1,1.549,3.763,3.819,3.819,0,0,1-.752,2.341,4.856,4.856,0,0,1-2.05,1.577,4.388,4.388,0,0,1,2.421,1.629A4.68,4.68,0,0,1,214,193a5.057,5.057,0,0,1-1.649,4,6.824,6.824,0,0,1-4.661,1.454Zm2.49-10.837h3.764A3.953,3.953,0,0,0,210,186.8a2.745,2.745,0,0,0,.981-2.225,2.7,2.7,0,0,0-.91-2.269,4.459,4.459,0,0,0-2.765-.71h-3.686Zm0,2v6.8h4.115a3.97,3.97,0,0,0,2.745-.9,3.173,3.173,0,0,0,1.007-2.486q0-3.415-3.712-3.415Z" transform="translate(-187.951 -169.973)" fill="#414ea8"/>
  </g>
</svg>
