<svg xmlns="http://www.w3.org/2000/svg" width="82.985" height="30.953" viewBox="0 0 82.985 30.953"><g transform="translate(-518.733 -453.436)"><g transform="translate(519.741 479.657)"><path d="M527.068,674.247v-3.522a.046.046,0,0,1,.052-.052h.264a.046.046,0,0,1,.052.052v3.522a.046.046,0,0,1-.052.052h-.264A.046.046,0,0,1,527.068,674.247Z" transform="translate(-527.068 -670.621)"/><path d="M537.226,678.9a.949.949,0,0,1,.173.606v1.782a.046.046,0,0,1-.052.052h-.264a.046.046,0,0,1-.052-.052v-1.751a.618.618,0,0,0-.111-.394.372.372,0,0,0-.308-.14.387.387,0,0,0-.324.15.652.652,0,0,0-.116.409v1.725a.046.046,0,0,1-.052.052h-.264a.046.046,0,0,1-.052-.052v-2.517a.046.046,0,0,1,.052-.052h.264a.046.046,0,0,1,.052.052v.166a.016.016,0,0,0,.01.015c.007,0,.012,0,.016-.01a.586.586,0,0,1,.236-.194.725.725,0,0,1,.3-.065A.59.59,0,0,1,537.226,678.9Z" transform="translate(-534.747 -677.661)"/><path d="M553.515,674.512h-.394a.018.018,0,0,0-.021.021v1.585a.493.493,0,0,0,.083.329.313.313,0,0,0,.254.085h.052a.046.046,0,0,1,.052.052v.223a.046.046,0,0,1-.052.052h-.13a.708.708,0,0,1-.464-.132.632.632,0,0,1-.158-.5v-1.694a.018.018,0,0,0-.021-.021h-.2a.046.046,0,0,1-.052-.052v-.171a.046.046,0,0,1,.052-.052h.2a.018.018,0,0,0,.021-.021v-.58a.046.046,0,0,1,.052-.052h.259a.046.046,0,0,1,.052.052v.58a.018.018,0,0,0,.021.021h.394a.046.046,0,0,1,.052.052v.171A.046.046,0,0,1,553.515,674.512Z" transform="translate(-549.392 -673.181)"/><path d="M566.494,680.13h-1.181a.018.018,0,0,0-.021.021v.378a.514.514,0,0,0,.122.355.405.405,0,0,0,.319.137.416.416,0,0,0,.282-.1.473.473,0,0,0,.153-.262.058.058,0,0,1,.057-.047l.259.01a.05.05,0,0,1,.036.016.043.043,0,0,1,.01.042.741.741,0,0,1-.251.484.813.813,0,0,1-.546.179.8.8,0,0,1-.588-.217.773.773,0,0,1-.22-.575v-1.119a.775.775,0,0,1,.22-.572.9.9,0,0,1,1.181,0,.775.775,0,0,1,.22.572v.647A.046.046,0,0,1,566.494,680.13Zm-1.08-1.033a.523.523,0,0,0-.122.36v.347a.018.018,0,0,0,.021.021h.849a.018.018,0,0,0,.021-.021v-.347a.516.516,0,0,0-.124-.36.419.419,0,0,0-.326-.137A.406.406,0,0,0,565.414,679.1Z" transform="translate(-560.346 -677.623)"/><path d="M583.934,678.824a.056.056,0,0,1,.026.067l-.062.269q-.005.047-.062.031a.347.347,0,0,0-.155-.031.273.273,0,0,0-.062.005.381.381,0,0,0-.306.194.806.806,0,0,0-.119.448v1.554a.046.046,0,0,1-.052.052h-.264a.046.046,0,0,1-.052-.052v-2.517a.046.046,0,0,1,.052-.052h.264a.046.046,0,0,1,.052.052v.311c0,.01,0,.016.008.016a.029.029,0,0,0,.018-.01.516.516,0,0,1,.492-.394A.419.419,0,0,1,583.934,678.824Z" transform="translate(-576.082 -677.736)"/><path d="M596.753,678.9a.947.947,0,0,1,.174.606v1.782a.046.046,0,0,1-.052.052h-.264a.046.046,0,0,1-.052-.052v-1.751a.619.619,0,0,0-.111-.394.373.373,0,0,0-.308-.14.387.387,0,0,0-.324.15.652.652,0,0,0-.117.409v1.725a.046.046,0,0,1-.052.052h-.264a.046.046,0,0,1-.052-.052v-2.517a.046.046,0,0,1,.052-.052h.264a.046.046,0,0,1,.052.052v.166a.017.017,0,0,0,.01.015c.007,0,.012,0,.016-.01a.586.586,0,0,1,.236-.194.724.724,0,0,1,.3-.065A.59.59,0,0,1,596.753,678.9Z" transform="translate(-587.075 -677.661)"/><path d="M614.587,680.13h-1.181a.018.018,0,0,0-.021.021v.378a.514.514,0,0,0,.122.355.405.405,0,0,0,.319.137.416.416,0,0,0,.282-.1.473.473,0,0,0,.153-.262.058.058,0,0,1,.057-.047l.259.01a.05.05,0,0,1,.036.016.043.043,0,0,1,.01.042.74.74,0,0,1-.251.484.813.813,0,0,1-.546.179.8.8,0,0,1-.588-.217.772.772,0,0,1-.22-.575v-1.119a.774.774,0,0,1,.22-.572.9.9,0,0,1,1.181,0,.775.775,0,0,1,.22.572v.647A.046.046,0,0,1,614.587,680.13Zm-1.08-1.033a.522.522,0,0,0-.122.36v.347a.018.018,0,0,0,.021.021h.849a.018.018,0,0,0,.021-.021v-.347a.516.516,0,0,0-.124-.36.419.419,0,0,0-.326-.137A.406.406,0,0,0,613.507,679.1Z" transform="translate(-602.622 -677.623)"/><path d="M630.3,674.512h-.394a.018.018,0,0,0-.021.021v1.585a.493.493,0,0,0,.083.329.313.313,0,0,0,.254.085h.052a.046.046,0,0,1,.052.052v.223a.046.046,0,0,1-.052.052h-.13a.708.708,0,0,1-.464-.132.632.632,0,0,1-.158-.5v-1.694a.018.018,0,0,0-.021-.021h-.2a.046.046,0,0,1-.052-.052v-.171a.046.046,0,0,1,.052-.052h.2a.018.018,0,0,0,.021-.021v-.58a.046.046,0,0,1,.052-.052h.259a.046.046,0,0,1,.052.052v.58a.018.018,0,0,0,.021.021h.394a.046.046,0,0,1,.052.052v.171A.046.046,0,0,1,630.3,674.512Z" transform="translate(-616.89 -673.181)"/><path d="M650.3,674.252l-.129-.642a.018.018,0,0,0-.008-.016.033.033,0,0,0-.018-.005H649.2a.033.033,0,0,0-.018.005.018.018,0,0,0-.008.016l-.13.642a.05.05,0,0,1-.057.047h-.264a.048.048,0,0,1-.039-.016.047.047,0,0,1-.008-.041l.777-3.522a.053.053,0,0,1,.057-.047h.311a.049.049,0,0,1,.057.047l.787,3.522v.01a.041.041,0,0,1-.047.047h-.269A.053.053,0,0,1,650.3,674.252Zm-1.036-.963h.818c.01,0,.015-.007.015-.021l-.414-2.035c0-.01-.007-.016-.01-.016s-.007.005-.01.016l-.414,2.035C649.245,673.282,649.25,673.289,649.26,673.289Z" transform="translate(-633.971 -670.621)"/><path d="M668.011,681.124a.772.772,0,0,1-.22-.575v-1.119a.77.77,0,0,1,.223-.572.8.8,0,0,1,.585-.22.909.909,0,0,1,.43.1.729.729,0,0,1,.287.262.67.67,0,0,1,.1.36v.052a.046.046,0,0,1-.052.052l-.264.01a.046.046,0,0,1-.052-.052v-.036a.408.408,0,0,0-.127-.3.439.439,0,0,0-.324-.127.405.405,0,0,0-.319.137.523.523,0,0,0-.122.36v1.067a.522.522,0,0,0,.122.36.4.4,0,0,0,.319.137.438.438,0,0,0,.324-.127.408.408,0,0,0,.127-.3v-.036a.046.046,0,0,1,.052-.052l.264.005a.046.046,0,0,1,.052.052v.057a.667.667,0,0,1-.225.515.848.848,0,0,1-.593.2A.8.8,0,0,1,668.011,681.124Z" transform="translate(-650.771 -677.623)"/><path d="M685.227,681.124a.772.772,0,0,1-.22-.575v-1.119a.77.77,0,0,1,.223-.572.8.8,0,0,1,.585-.22.909.909,0,0,1,.43.1.73.73,0,0,1,.287.262.671.671,0,0,1,.1.36v.052a.046.046,0,0,1-.052.052l-.264.01a.046.046,0,0,1-.052-.052v-.036a.408.408,0,0,0-.127-.3.439.439,0,0,0-.324-.127.405.405,0,0,0-.318.137.522.522,0,0,0-.122.36v1.067a.521.521,0,0,0,.122.36.4.4,0,0,0,.318.137.438.438,0,0,0,.324-.127.408.408,0,0,0,.127-.3v-.036a.046.046,0,0,1,.052-.052l.264.005a.046.046,0,0,1,.052.052v.057a.666.666,0,0,1-.225.515.848.848,0,0,1-.593.2A.8.8,0,0,1,685.227,681.124Z" transform="translate(-665.905 -677.623)"/><path d="M703.791,680.13H702.61a.018.018,0,0,0-.021.021v.378a.514.514,0,0,0,.122.355.4.4,0,0,0,.319.137.416.416,0,0,0,.282-.1.473.473,0,0,0,.153-.262.058.058,0,0,1,.057-.047l.259.01a.05.05,0,0,1,.036.016.043.043,0,0,1,.01.042.742.742,0,0,1-.251.484.813.813,0,0,1-.546.179.8.8,0,0,1-.588-.217.772.772,0,0,1-.22-.575v-1.119a.775.775,0,0,1,.22-.572.9.9,0,0,1,1.181,0,.775.775,0,0,1,.22.572v.647A.046.046,0,0,1,703.791,680.13Zm-1.08-1.033a.522.522,0,0,0-.122.36v.347a.018.018,0,0,0,.021.021h.849a.018.018,0,0,0,.021-.021v-.347a.516.516,0,0,0-.124-.36.42.42,0,0,0-.326-.137A.405.405,0,0,0,702.711,679.1Z" transform="translate(-681.038 -677.623)"/><path d="M719.4,681.256a.611.611,0,0,1-.215-.489v-.036a.046.046,0,0,1,.052-.052h.249a.046.046,0,0,1,.052.052v.031a.369.369,0,0,0,.122.28.448.448,0,0,0,.319.114.406.406,0,0,0,.3-.114.393.393,0,0,0,.114-.29.35.35,0,0,0-.073-.225.553.553,0,0,0-.168-.143q-.1-.052-.287-.135a2.42,2.42,0,0,1-.334-.163.718.718,0,0,1-.228-.228.776.776,0,0,1,.109-.9.892.892,0,0,1,1.111.005.688.688,0,0,1,.207.523v.016a.046.046,0,0,1-.052.052h-.238a.046.046,0,0,1-.052-.052v-.031a.389.389,0,0,0-.116-.29.416.416,0,0,0-.3-.114.393.393,0,0,0-.3.117.4.4,0,0,0-.111.288.328.328,0,0,0,.067.21.543.543,0,0,0,.166.14q.1.054.275.132a3.106,3.106,0,0,1,.349.176.789.789,0,0,1,.241.233.642.642,0,0,1,.1.373.657.657,0,0,1-.212.513.827.827,0,0,1-.575.192A.849.849,0,0,1,719.4,681.256Z" transform="translate(-695.946 -677.736)"/><path d="M734.342,681.256a.611.611,0,0,1-.215-.489v-.036a.046.046,0,0,1,.052-.052h.249a.046.046,0,0,1,.052.052v.031a.369.369,0,0,0,.122.28.448.448,0,0,0,.319.114.406.406,0,0,0,.3-.114.393.393,0,0,0,.114-.29.35.35,0,0,0-.072-.225.552.552,0,0,0-.168-.143q-.1-.052-.287-.135a2.407,2.407,0,0,1-.334-.163.718.718,0,0,1-.228-.228.776.776,0,0,1,.109-.9.892.892,0,0,1,1.111.005.689.689,0,0,1,.207.523v.016a.046.046,0,0,1-.052.052h-.238a.046.046,0,0,1-.052-.052v-.031a.389.389,0,0,0-.116-.29.416.416,0,0,0-.3-.114.393.393,0,0,0-.3.117.4.4,0,0,0-.111.288.328.328,0,0,0,.067.21.541.541,0,0,0,.166.14q.1.054.275.132a3.1,3.1,0,0,1,.35.176.788.788,0,0,1,.241.233.641.641,0,0,1,.1.373.657.657,0,0,1-.212.513.827.827,0,0,1-.575.192A.85.85,0,0,1,734.342,681.256Z" transform="translate(-709.084 -677.736)"/><path d="M761.6,670.673h.269a.046.046,0,0,1,.052.052v3.522a.046.046,0,0,1-.052.052h-.264a.046.046,0,0,1-.052-.052v-2.776c0-.01,0-.015-.008-.015a.028.028,0,0,0-.018.01l-.539,1.119a.053.053,0,0,1-.052.036.057.057,0,0,1-.057-.036l-.539-1.114a.029.029,0,0,0-.018-.01c-.005,0-.008.005-.008.016v2.771a.046.046,0,0,1-.052.052H760a.046.046,0,0,1-.052-.052v-3.522a.046.046,0,0,1,.052-.052h.269a.061.061,0,0,1,.062.036l.59,1.2a.017.017,0,0,0,.016.01.016.016,0,0,0,.015-.01l.585-1.2A.061.061,0,0,1,761.6,670.673Z" transform="translate(-731.784 -670.621)"/><path d="M782.432,678.874a.891.891,0,0,1,.218.629v1.745a.046.046,0,0,1-.052.052h-.264a.046.046,0,0,1-.052-.052v-.155a.012.012,0,0,0-.008-.013c-.005,0-.011,0-.018.008a.675.675,0,0,1-.575.254.782.782,0,0,1-.495-.163.691.691,0,0,1-.21-.578.779.779,0,0,1,.254-.645,1.032,1.032,0,0,1,.668-.2h.363a.018.018,0,0,0,.021-.021v-.2a.663.663,0,0,0-.119-.414.384.384,0,0,0-.321-.155.378.378,0,0,0-.267.1.423.423,0,0,0-.132.264.046.046,0,0,1-.052.052l-.29-.005a.048.048,0,0,1-.039-.016.039.039,0,0,1-.008-.036.7.7,0,0,1,.249-.495.819.819,0,0,1,.549-.189A.752.752,0,0,1,782.432,678.874Zm-.306,2.01a.481.481,0,0,0,.155-.381v-.435a.018.018,0,0,0-.021-.021h-.368a.562.562,0,0,0-.394.132.5.5,0,0,0-.145.391.461.461,0,0,0,.111.339.4.4,0,0,0,.293.111A.537.537,0,0,0,782.127,680.883Z" transform="translate(-750.268 -677.623)"/><path d="M800.985,678.9a.948.948,0,0,1,.174.606v1.782a.046.046,0,0,1-.052.052h-.264a.046.046,0,0,1-.052-.052v-1.751a.618.618,0,0,0-.111-.394.372.372,0,0,0-.308-.14.387.387,0,0,0-.324.15.651.651,0,0,0-.117.409v1.725a.046.046,0,0,1-.052.052h-.264a.046.046,0,0,1-.052-.052v-2.517a.046.046,0,0,1,.052-.052h.264a.046.046,0,0,1,.052.052v.166a.016.016,0,0,0,.01.015c.007,0,.012,0,.016-.01a.585.585,0,0,1,.236-.194.724.724,0,0,1,.3-.065A.59.59,0,0,1,800.985,678.9Z" transform="translate(-766.606 -677.661)"/><path d="M818.277,678.874a.891.891,0,0,1,.218.629v1.745a.046.046,0,0,1-.052.052h-.264a.046.046,0,0,1-.052-.052v-.155a.012.012,0,0,0-.008-.013c-.005,0-.011,0-.018.008a.675.675,0,0,1-.575.254.782.782,0,0,1-.495-.163.692.692,0,0,1-.21-.578.78.78,0,0,1,.254-.645,1.033,1.033,0,0,1,.668-.2h.362a.019.019,0,0,0,.021-.021v-.2a.664.664,0,0,0-.119-.414.384.384,0,0,0-.321-.155.378.378,0,0,0-.267.1.423.423,0,0,0-.132.264.046.046,0,0,1-.052.052l-.29-.005a.048.048,0,0,1-.039-.016.039.039,0,0,1-.008-.036.7.7,0,0,1,.249-.495.819.819,0,0,1,.549-.189A.752.752,0,0,1,818.277,678.874Zm-.306,2.01a.481.481,0,0,0,.156-.381v-.435a.018.018,0,0,0-.021-.021h-.368a.562.562,0,0,0-.394.132.5.5,0,0,0-.145.391.46.46,0,0,0,.111.339.4.4,0,0,0,.293.111A.537.537,0,0,0,817.972,680.883Z" transform="translate(-781.778 -677.623)"/><path d="M836.237,678.68h.264a.046.046,0,0,1,.052.052v2.517a1.227,1.227,0,0,1-.256.842,1.037,1.037,0,0,1-.857.261.051.051,0,0,1-.052-.057v-.223a.046.046,0,0,1,.052-.052.7.7,0,0,0,.58-.189.948.948,0,0,0,.166-.614v-.155a.018.018,0,0,0-.008-.016c-.005,0-.011,0-.018.005a.573.573,0,0,1-.225.2.655.655,0,0,1-.293.068.648.648,0,0,1-.515-.218.845.845,0,0,1-.189-.575v-1.093a.843.843,0,0,1,.189-.578.652.652,0,0,1,.515-.215.678.678,0,0,1,.293.065.557.557,0,0,1,.225.194c.007.01.013.015.018.013s.008-.008.008-.018v-.161A.046.046,0,0,1,836.237,678.68Zm-.174,2.178a.515.515,0,0,0,.122-.355v-1.046a.523.523,0,0,0-.122-.36.4.4,0,0,0-.313-.137.413.413,0,0,0-.321.137.516.516,0,0,0-.124.36V680.5a.509.509,0,0,0,.124.355.413.413,0,0,0,.321.137A.4.4,0,0,0,836.063,680.858Z" transform="translate(-797.702 -677.623)"/><path d="M854.192,680.13h-1.181a.018.018,0,0,0-.021.021v.378a.514.514,0,0,0,.122.355.405.405,0,0,0,.319.137.416.416,0,0,0,.282-.1.473.473,0,0,0,.153-.262.058.058,0,0,1,.057-.047l.259.01a.05.05,0,0,1,.036.016.043.043,0,0,1,.01.042.741.741,0,0,1-.251.484.813.813,0,0,1-.547.179.8.8,0,0,1-.588-.217.772.772,0,0,1-.22-.575v-1.119a.775.775,0,0,1,.22-.572.9.9,0,0,1,1.181,0,.775.775,0,0,1,.22.572v.647A.046.046,0,0,1,854.192,680.13Zm-1.08-1.033a.523.523,0,0,0-.122.36v.347a.018.018,0,0,0,.021.021h.85a.018.018,0,0,0,.021-.021v-.347a.516.516,0,0,0-.124-.36.42.42,0,0,0-.326-.137A.406.406,0,0,0,853.112,679.1Z" transform="translate(-813.249 -677.623)"/><path d="M873.1,678.909a1.033,1.033,0,0,1,.171.632v1.745a.046.046,0,0,1-.052.052h-.259a.046.046,0,0,1-.052-.052v-1.714a.694.694,0,0,0-.111-.417.346.346,0,0,0-.293-.153.369.369,0,0,0-.311.15.662.662,0,0,0-.114.409v1.725a.046.046,0,0,1-.052.052h-.264a.046.046,0,0,1-.052-.052v-1.714a.694.694,0,0,0-.111-.417.341.341,0,0,0-.287-.153.376.376,0,0,0-.313.15.651.651,0,0,0-.117.409v1.725a.046.046,0,0,1-.052.052h-.259a.046.046,0,0,1-.052-.052v-2.517a.046.046,0,0,1,.052-.052h.259a.046.046,0,0,1,.052.052v.161a.012.012,0,0,0,.008.013c.005,0,.011,0,.018-.008a.614.614,0,0,1,.233-.192.671.671,0,0,1,.285-.062.606.606,0,0,1,.342.1.614.614,0,0,1,.223.272.016.016,0,0,0,.015.01c.007,0,.012-.005.016-.016a.616.616,0,0,1,.254-.275.7.7,0,0,1,.342-.088A.567.567,0,0,1,873.1,678.909Z" transform="translate(-828.985 -677.661)"/><path d="M899.373,680.13h-1.181a.018.018,0,0,0-.021.021v.378a.514.514,0,0,0,.122.355.4.4,0,0,0,.319.137.416.416,0,0,0,.282-.1.474.474,0,0,0,.153-.262.058.058,0,0,1,.057-.047l.259.01a.05.05,0,0,1,.036.016.043.043,0,0,1,.01.042.742.742,0,0,1-.251.484.814.814,0,0,1-.546.179.8.8,0,0,1-.588-.217.772.772,0,0,1-.22-.575v-1.119a.774.774,0,0,1,.22-.572.9.9,0,0,1,1.181,0,.775.775,0,0,1,.22.572v.647A.046.046,0,0,1,899.373,680.13Zm-1.08-1.033a.522.522,0,0,0-.122.36v.347a.018.018,0,0,0,.021.021h.849a.018.018,0,0,0,.021-.021v-.347a.516.516,0,0,0-.124-.36.42.42,0,0,0-.326-.137A.405.405,0,0,0,898.293,679.1Z" transform="translate(-852.966 -677.623)"/><path d="M917.127,678.9a.948.948,0,0,1,.174.606v1.782a.046.046,0,0,1-.052.052h-.264a.046.046,0,0,1-.052-.052v-1.751a.619.619,0,0,0-.111-.394.373.373,0,0,0-.308-.14.387.387,0,0,0-.324.15.652.652,0,0,0-.117.409v1.725a.046.046,0,0,1-.052.052h-.264a.046.046,0,0,1-.052-.052v-2.517a.046.046,0,0,1,.052-.052h.264a.046.046,0,0,1,.052.052v.166a.016.016,0,0,0,.01.015c.007,0,.012,0,.016-.01a.584.584,0,0,1,.236-.194.724.724,0,0,1,.3-.065A.591.591,0,0,1,917.127,678.9Z" transform="translate(-868.702 -677.661)"/><path d="M933.415,674.512h-.394a.018.018,0,0,0-.021.021v1.585a.493.493,0,0,0,.083.329.313.313,0,0,0,.254.085h.052a.046.046,0,0,1,.052.052v.223a.046.046,0,0,1-.052.052h-.13a.708.708,0,0,1-.463-.132.631.631,0,0,1-.158-.5v-1.694a.018.018,0,0,0-.021-.021h-.2a.046.046,0,0,1-.052-.052v-.171a.046.046,0,0,1,.052-.052h.2a.018.018,0,0,0,.021-.021v-.58a.046.046,0,0,1,.052-.052h.259a.046.046,0,0,1,.052.052v.58a.018.018,0,0,0,.021.021h.394a.046.046,0,0,1,.052.052v.171A.046.046,0,0,1,933.415,674.512Z" transform="translate(-883.346 -673.181)"/><path d="M953.851,673.79a.9.9,0,0,1-.246-.658v-1.9a.9.9,0,0,1,.246-.658.867.867,0,0,1,.645-.249.854.854,0,0,1,.9.906v1.9a.891.891,0,0,1-.249.655.878.878,0,0,1-.653.251A.867.867,0,0,1,953.851,673.79Zm1.031-.231a.572.572,0,0,0,.148-.407v-1.932a.579.579,0,0,0-.148-.412.5.5,0,0,0-.386-.158.49.49,0,0,0-.378.158.585.585,0,0,0-.145.412v1.932a.578.578,0,0,0,.145.407.489.489,0,0,0,.378.158A.5.5,0,0,0,954.882,673.559Z" transform="translate(-902.018 -670.32)"/><path d="M975.023,678.858a.827.827,0,0,1,.2.572v1.119a.822.822,0,0,1-.2.578.675.675,0,0,1-.523.215.7.7,0,0,1-.275-.054.612.612,0,0,1-.228-.168c-.007-.007-.013-.009-.018-.005a.018.018,0,0,0-.008.016v1.124a.046.046,0,0,1-.052.052h-.264a.046.046,0,0,1-.052-.052v-3.522a.046.046,0,0,1,.052-.052h.264a.046.046,0,0,1,.052.052v.119a.012.012,0,0,0,.01.013.022.022,0,0,0,.021-.008.587.587,0,0,1,.225-.163.706.706,0,0,1,.272-.054A.668.668,0,0,1,975.023,678.858Zm-.293.238a.422.422,0,0,0-.324-.137.4.4,0,0,0-.313.137.522.522,0,0,0-.122.36v1.067a.521.521,0,0,0,.122.36.4.4,0,0,0,.313.137.421.421,0,0,0,.324-.137.509.509,0,0,0,.127-.36v-1.067A.51.51,0,0,0,974.731,679.1Z" transform="translate(-919.598 -677.623)"/><path d="M992.817,680.13h-1.181a.018.018,0,0,0-.021.021v.378a.514.514,0,0,0,.122.355.4.4,0,0,0,.319.137.416.416,0,0,0,.282-.1.473.473,0,0,0,.153-.262.058.058,0,0,1,.057-.047l.259.01a.05.05,0,0,1,.036.016.043.043,0,0,1,.01.042.741.741,0,0,1-.251.484.814.814,0,0,1-.547.179.8.8,0,0,1-.588-.217.772.772,0,0,1-.22-.575v-1.119a.774.774,0,0,1,.22-.572.9.9,0,0,1,1.181,0,.775.775,0,0,1,.22.572v.647A.046.046,0,0,1,992.817,680.13Zm-1.08-1.033a.523.523,0,0,0-.122.36v.347a.018.018,0,0,0,.021.021h.849a.018.018,0,0,0,.021-.021v-.347a.516.516,0,0,0-.124-.36.42.42,0,0,0-.326-.137A.405.405,0,0,0,991.737,679.1Z" transform="translate(-935.108 -677.623)"/><path d="M1010.257,678.824a.056.056,0,0,1,.026.067l-.062.269c0,.031-.024.042-.062.031a.347.347,0,0,0-.155-.031.273.273,0,0,0-.062.005.381.381,0,0,0-.306.194.806.806,0,0,0-.119.448v1.554a.046.046,0,0,1-.052.052h-.264a.046.046,0,0,1-.052-.052v-2.517a.046.046,0,0,1,.052-.052h.264a.046.046,0,0,1,.052.052v.311c0,.01,0,.016.008.016a.029.029,0,0,0,.018-.01.516.516,0,0,1,.492-.394A.419.419,0,0,1,1010.257,678.824Z" transform="translate(-950.844 -677.736)"/><path d="M1022.124,678.874a.891.891,0,0,1,.217.629v1.745a.046.046,0,0,1-.052.052h-.264a.046.046,0,0,1-.052-.052v-.155a.012.012,0,0,0-.008-.013c-.005,0-.011,0-.018.008a.675.675,0,0,1-.575.254.782.782,0,0,1-.495-.163.692.692,0,0,1-.21-.578.78.78,0,0,1,.254-.645,1.033,1.033,0,0,1,.668-.2h.362a.018.018,0,0,0,.021-.021v-.2a.664.664,0,0,0-.119-.414.384.384,0,0,0-.321-.155.378.378,0,0,0-.267.1.422.422,0,0,0-.132.264.046.046,0,0,1-.052.052l-.29-.005a.047.047,0,0,1-.039-.016.039.039,0,0,1-.008-.036.7.7,0,0,1,.249-.495.819.819,0,0,1,.549-.189A.752.752,0,0,1,1022.124,678.874Zm-.306,2.01a.481.481,0,0,0,.155-.381v-.435a.018.018,0,0,0-.021-.021h-.368a.562.562,0,0,0-.394.132.5.5,0,0,0-.145.391.461.461,0,0,0,.111.339.4.4,0,0,0,.293.111A.537.537,0,0,0,1021.819,680.883Z" transform="translate(-960.971 -677.623)"/><path d="M1038.807,674.512h-.394a.018.018,0,0,0-.021.021v1.585a.493.493,0,0,0,.083.329.313.313,0,0,0,.254.085h.052a.046.046,0,0,1,.052.052v.223a.046.046,0,0,1-.052.052h-.13a.707.707,0,0,1-.463-.132.631.631,0,0,1-.158-.5v-1.694a.018.018,0,0,0-.021-.021h-.2a.046.046,0,0,1-.052-.052v-.171a.046.046,0,0,1,.052-.052h.2a.018.018,0,0,0,.021-.021v-.58a.046.046,0,0,1,.052-.052h.259a.046.046,0,0,1,.052.052v.58a.018.018,0,0,0,.021.021h.394a.046.046,0,0,1,.052.052v.171A.046.046,0,0,1,1038.807,674.512Z" transform="translate(-975.991 -673.181)"/><path d="M1050.212,670.741a.289.289,0,0,1,.21-.5.277.277,0,0,1,.2.08.311.311,0,0,1,0,.417.273.273,0,0,1-.2.083A.279.279,0,0,1,1050.212,670.741Zm.029,3.128v-2.517a.046.046,0,0,1,.052-.052h.264a.046.046,0,0,1,.052.052v2.517a.046.046,0,0,1-.052.052h-.264A.046.046,0,0,1,1050.241,673.87Z" transform="translate(-986.871 -670.244)"/><path d="M1061.018,678.9a.948.948,0,0,1,.174.606v1.782a.046.046,0,0,1-.052.052h-.264a.046.046,0,0,1-.052-.052v-1.751a.618.618,0,0,0-.111-.394.372.372,0,0,0-.308-.14.387.387,0,0,0-.324.15.652.652,0,0,0-.116.409v1.725a.046.046,0,0,1-.052.052h-.264a.046.046,0,0,1-.052-.052v-2.517a.046.046,0,0,1,.052-.052h.264a.046.046,0,0,1,.052.052v.166a.016.016,0,0,0,.01.015c.007,0,.012,0,.016-.01a.585.585,0,0,1,.236-.194.725.725,0,0,1,.3-.065A.59.59,0,0,1,1061.018,678.9Z" transform="translate(-995.19 -677.661)"/><path d="M1078.583,678.68h.264a.046.046,0,0,1,.052.052v2.517a1.228,1.228,0,0,1-.256.842,1.038,1.038,0,0,1-.857.261.051.051,0,0,1-.052-.057v-.223a.046.046,0,0,1,.052-.052.7.7,0,0,0,.58-.189.947.947,0,0,0,.166-.614v-.155a.018.018,0,0,0-.008-.016c-.005,0-.011,0-.018.005a.574.574,0,0,1-.225.2.654.654,0,0,1-.293.068.647.647,0,0,1-.515-.218.846.846,0,0,1-.189-.575v-1.093a.844.844,0,0,1,.189-.578.652.652,0,0,1,.515-.215.678.678,0,0,1,.293.065.558.558,0,0,1,.225.194c.007.01.013.015.018.013s.008-.008.008-.018v-.161A.046.046,0,0,1,1078.583,678.68Zm-.174,2.178a.516.516,0,0,0,.122-.355v-1.046a.523.523,0,0,0-.122-.36.4.4,0,0,0-.313-.137.414.414,0,0,0-.321.137.516.516,0,0,0-.124.36V680.5a.509.509,0,0,0,.124.355.414.414,0,0,0,.321.137A.4.4,0,0,0,1078.409,680.858Z" transform="translate(-1010.738 -677.623)"/><path d="M1103.392,673.785a.929.929,0,0,1-.238-.663V673a.046.046,0,0,1,.052-.052h.254a.046.046,0,0,1,.052.052v.1a.671.671,0,0,0,.14.443.45.45,0,0,0,.363.168.468.468,0,0,0,.363-.161.609.609,0,0,0,.145-.425.621.621,0,0,0-.07-.3.813.813,0,0,0-.181-.223q-.112-.1-.37-.292t-.409-.329a1.113,1.113,0,0,1-.246-.329,1,1,0,0,1-.1-.451.87.87,0,0,1,.233-.64.9.9,0,0,1,1.235.021.968.968,0,0,1,.236.681v.13a.046.046,0,0,1-.052.052h-.259a.046.046,0,0,1-.052-.052v-.135a.679.679,0,0,0-.137-.443.448.448,0,0,0-.365-.168.442.442,0,0,0-.342.148.6.6,0,0,0-.135.417.638.638,0,0,0,.059.282.781.781,0,0,0,.179.23q.119.109.352.285a5.463,5.463,0,0,1,.464.37,1.078,1.078,0,0,1,.236.311.914.914,0,0,1,.083.407.948.948,0,0,1-.244.681.826.826,0,0,1-.627.256A.814.814,0,0,1,1103.392,673.785Z" transform="translate(-1033.475 -670.32)"/><path d="M1120,682.622a.064.064,0,0,1-.01-.036v-.207a.046.046,0,0,1,.052-.052.5.5,0,0,0,.251-.062.4.4,0,0,0,.148-.2,2.691,2.691,0,0,0,.114-.445.025.025,0,0,0,0-.018.039.039,0,0,1,0-.013l-.658-2.548-.005-.016c0-.028.017-.041.052-.041h.28a.049.049,0,0,1,.057.047l.456,2.036c0,.01.007.015.01.015s.007-.005.01-.015l.451-2.036a.053.053,0,0,1,.057-.047l.29.005a.048.048,0,0,1,.039.016.038.038,0,0,1,0,.041l-.72,2.787a2.478,2.478,0,0,1-.184.513.506.506,0,0,1-.236.23,1.032,1.032,0,0,1-.409.065h-.026C1120.017,682.638,1120.01,682.633,1120,682.622Z" transform="translate(-1048.195 -677.924)"/><path d="M1136.554,681.256a.612.612,0,0,1-.215-.489v-.036a.046.046,0,0,1,.052-.052h.249a.046.046,0,0,1,.052.052v.031a.368.368,0,0,0,.122.28.447.447,0,0,0,.319.114.406.406,0,0,0,.3-.114.394.394,0,0,0,.114-.29.349.349,0,0,0-.073-.225.55.55,0,0,0-.168-.143q-.1-.052-.287-.135a2.4,2.4,0,0,1-.334-.163.717.717,0,0,1-.228-.228.776.776,0,0,1,.109-.9.891.891,0,0,1,1.111.005.688.688,0,0,1,.207.523v.016a.046.046,0,0,1-.052.052h-.238a.046.046,0,0,1-.052-.052v-.031a.388.388,0,0,0-.116-.29.416.416,0,0,0-.3-.114.393.393,0,0,0-.3.117.4.4,0,0,0-.111.288.327.327,0,0,0,.068.21.543.543,0,0,0,.166.14q.1.054.275.132a3.131,3.131,0,0,1,.35.176.786.786,0,0,1,.241.233.64.64,0,0,1,.1.373.657.657,0,0,1-.212.513.826.826,0,0,1-.575.192A.85.85,0,0,1,1136.554,681.256Z" transform="translate(-1062.651 -677.736)"/><path d="M1152.764,674.512h-.394a.018.018,0,0,0-.021.021v1.585a.493.493,0,0,0,.083.329.313.313,0,0,0,.254.085h.052a.046.046,0,0,1,.052.052v.223a.046.046,0,0,1-.052.052h-.13a.708.708,0,0,1-.464-.132.632.632,0,0,1-.158-.5v-1.694a.018.018,0,0,0-.021-.021h-.2a.046.046,0,0,1-.052-.052v-.171a.046.046,0,0,1,.052-.052h.2a.018.018,0,0,0,.021-.021v-.58a.046.046,0,0,1,.052-.052h.259a.046.046,0,0,1,.052.052v.58a.018.018,0,0,0,.021.021h.394a.046.046,0,0,1,.052.052v.171A.046.046,0,0,1,1152.764,674.512Z" transform="translate(-1076.166 -673.181)"/><path d="M1165.744,680.13h-1.181a.018.018,0,0,0-.021.021v.378a.514.514,0,0,0,.122.355.405.405,0,0,0,.319.137.416.416,0,0,0,.282-.1.474.474,0,0,0,.153-.262.058.058,0,0,1,.057-.047l.259.01a.05.05,0,0,1,.036.016.043.043,0,0,1,.01.042.742.742,0,0,1-.251.484.814.814,0,0,1-.546.179.8.8,0,0,1-.588-.217.772.772,0,0,1-.22-.575v-1.119a.774.774,0,0,1,.22-.572.9.9,0,0,1,1.181,0,.775.775,0,0,1,.22.572v.647A.046.046,0,0,1,1165.744,680.13Zm-1.08-1.033a.522.522,0,0,0-.122.36v.347a.018.018,0,0,0,.021.021h.849a.018.018,0,0,0,.021-.021v-.347a.516.516,0,0,0-.124-.36.42.42,0,0,0-.326-.137A.406.406,0,0,0,1164.664,679.1Z" transform="translate(-1087.121 -677.623)"/><path d="M1184.655,678.909a1.033,1.033,0,0,1,.171.632v1.745a.046.046,0,0,1-.052.052h-.259a.046.046,0,0,1-.052-.052v-1.714a.7.7,0,0,0-.111-.417.346.346,0,0,0-.293-.153.369.369,0,0,0-.311.15.662.662,0,0,0-.114.409v1.725a.046.046,0,0,1-.052.052h-.264a.046.046,0,0,1-.052-.052v-1.714a.7.7,0,0,0-.111-.417.341.341,0,0,0-.287-.153.376.376,0,0,0-.313.15.652.652,0,0,0-.116.409v1.725a.046.046,0,0,1-.052.052h-.259a.046.046,0,0,1-.052-.052v-2.517a.046.046,0,0,1,.052-.052h.259a.046.046,0,0,1,.052.052v.161a.012.012,0,0,0,.008.013c.005,0,.011,0,.018-.008a.613.613,0,0,1,.233-.192.671.671,0,0,1,.285-.062.607.607,0,0,1,.342.1.613.613,0,0,1,.223.272.016.016,0,0,0,.016.01c.007,0,.012-.005.016-.016a.617.617,0,0,1,.254-.275.7.7,0,0,1,.342-.088A.567.567,0,0,1,1184.655,678.909Z" transform="translate(-1102.857 -677.661)"/></g><g transform="translate(588.115 456.181)"><path d="M1200.148,593.409a4.4,4.4,0,0,1-.477,1.4q.349-1.663.63-3.35A12.173,12.173,0,0,1,1200.148,593.409Z" transform="translate(-1186.698 -577.513)" fill="#0a6534"/><path d="M1192.227,571.972q-.426,2.923-1.062,5.8s-.106.1-.206.18-.268.19-.268.19q.786-3.449,1.274-7a4.585,4.585,0,0,1,.156.443C1192.2,571.83,1192.227,571.972,1192.227,571.972Z" transform="translate(-1178.805 -559.647)" fill="#0a6433"/><path d="M1184.869,562.194a80.155,80.155,0,0,1-1.427,7.957s-.094.043-.212.091-.22.083-.22.083a80.066,80.066,0,0,0,1.539-8.582s.124.157.19.252S1184.869,562.194,1184.869,562.194Z" transform="translate(-1172.052 -551.389)" fill="#0a6433"/><path d="M1177.711,490.144a79.378,79.378,0,0,1-1.625,9.138l-.417.1a79.239,79.239,0,0,0,1.7-9.531m.9-9q0,1.46-.06,2.912l-.368-.012q.058-1.489.061-2.992Z" transform="translate(-1165.598 -480.198)" fill="#0a6333"/><path d="M1170.669,488.336a78.58,78.58,0,0,1-1.756,9.9l-.408.063a78.452,78.452,0,0,0,1.812-10.178m.85-8.7q0,1.543-.06,3.077l-.368-.009q.061-1.556.061-3.128v-.013Z" transform="translate(-1159.301 -478.964)" fill="#0a6232"/><path d="M1163.707,486.944a77.758,77.758,0,0,1-1.851,10.445l-.4.037a77.619,77.619,0,0,0,1.9-10.643m.814-8.474v.089q0,1.564-.06,3.119l-.368-.007q.061-1.549.061-3.112v-.145Z" transform="translate(-1153.103 -477.996)" fill="#096132"/><path d="M1154.485,496.736q.468-1.837.847-3.708s.093-.023.195-.058.222-.093.222-.093q-.383,1.932-.865,3.841Zm2.322-10.857q-.234,2.234-.6,4.444a1.025,1.025,0,0,0-.148-.244.915.915,0,0,0-.167-.167q.33-2.062.549-4.16m.787-8.3c0,.068,0,.136,0,.2q0,1.558-.061,3.106l-.368,0q.061-1.543.061-3.1,0-.123,0-.246Z" transform="translate(-1146.977 -477.258)" fill="#096132"/><path d="M1147.577,496.218q.46-1.782.835-3.6l.192-.017c.1-.01.2-.024.2-.024-.248,1.217-.528,2.431-.835,3.634Zm2.376-11.145q-.208,2.034-.523,4.046s-.075-.039-.177-.089-.177-.078-.177-.078q.309-1.985.516-4m.764-8.113q0,.144,0,.288,0,1.553-.061,3.1l-.368,0q.062-1.539.062-3.093,0-.159,0-.319Z" transform="translate(-1140.904 -476.723)" fill="#096031"/><path d="M1140.723,495.853q.459-1.762.835-3.556l.389-.006q-.372,1.8-.832,3.57Zm2.423-11.4q-.2,2.007-.505,3.993l-.361-.125q.3-1.98.505-3.992m.741-7.9q0,.174,0,.347,0,1.55-.061,3.091l-.368,0q.062-1.537.062-3.088,0-.183,0-.367Z" transform="translate(-1134.879 -476.37)" fill="#095f31"/><path d="M1133.913,495.626q.461-1.751.839-3.535l.386.008q-.374,1.783-.835,3.546Zm2.464-11.636q-.2,2.006-.5,3.991l-.36-.127q.3-1.978.5-3.988m.718-7.672q0,.191,0,.383,0,1.548-.062,3.087h-.369q.063-1.535.063-3.086,0-.2,0-.392Z" transform="translate(-1128.893 -476.178)" fill="#095e31"/><path d="M1127.149,495.523q.46-1.732.837-3.5l.386.009q-.375,1.768-.836,3.516Zm2.5-11.848q-.19,2-.487,3.988l-.36-.127q.3-1.976.486-3.985m.7-7.419q0,.2,0,.4,0,1.548-.062,3.086h-.369q.063-1.536.063-3.088,0-.2,0-.4Z" transform="translate(-1122.947 -476.131)" fill="#095e30"/><path d="M1120.432,495.485q.455-1.7.83-3.434l.386.009q-.373,1.743-.832,3.466Zm2.528-12.038q-.184,2-.477,3.984l-.36-.127q.292-1.979.477-3.991m.674-7.134q0,.2,0,.392,0,1.555-.063,3.1l-.37.023q.066-1.554.066-3.123,0-.191,0-.381" transform="translate(-1117.042 -476.172)" fill="#095d30"/><path d="M1116.315,483.359q-.18,2.026-.471,4.031l-.36-.127q.3-2.035.477-4.106m.643-6.715q0,.179,0,.359,0,1.592-.067,3.174s-.126.02-.2.035-.171.039-.171.039q.072-1.615.072-3.248,0-.167,0-.333Zm-2.844,19.174q.447-1.66.817-3.352l.386.009q-.37,1.707-.822,3.393Z" transform="translate(-1111.176 -476.405)" fill="#095c30"/><path d="M1107.132,495.977q.436-1.61.8-3.25l.386.008q-.363,1.66-.806,3.3Zm2.6-12.715q-.178,2.181-.487,4.336l-.359-.136q.386-2.7.568-5.47a3.066,3.066,0,0,0,.081.82A1.287,1.287,0,0,0,1109.731,483.262Zm.242-6.272q0,.146,0,.292,0,1.726-.08,3.44a.811.811,0,0,0-.268.346,2.058,2.058,0,0,0-.152.6q.132-2.175.133-4.383,0-.124,0-.248Z" transform="translate(-1105.35 -476.886)" fill="#095b2f"/><path d="M1100.549,496.639q.421-1.55.773-3.127l.386.009q-.355,1.6-.784,3.188Zm2.833-18.735q0,.09,0,.181a71.969,71.969,0,0,1-.694,10.005l-.354-.173a71.142,71.142,0,0,0,.68-9.832v-.111Z" transform="translate(-1099.564 -477.69)" fill="#095b2f"/><path d="M1094.009,497.732q.4-1.48.743-2.986l.386.009q-.344,1.536-.757,3.055Zm2.82-18.4v.008a71.172,71.172,0,0,1-.647,9.606s-.106-.063-.187-.118l-.16-.109a70.374,70.374,0,0,0,.626-9.28Z" transform="translate(-1093.815 -478.943)" fill="#085a2f"/><path d="M1095.747,496.452m1.654-14.908a70.368,70.368,0,0,1-.583,8.814l-.178-.16c-.085-.077-.157-.156-.157-.156a69.543,69.543,0,0,0,.55-8.326Zm-1.782,15.136.077,0q-.059.259-.119.517Z" transform="translate(-1095.192 -480.889)" fill="#08592e"/><path d="M1098.132,485.232a69.49,69.49,0,0,1-.49,7.6s-.1-.137-.172-.26-.143-.252-.143-.252q.38-3.33.434-6.751s.071-.078.163-.163S1098.132,485.232,1098.132,485.232Z" transform="translate(-1096.731 -484.131)" fill="#08582e"/><path d="M1092.982,493.282q-.064,2.651-.329,5.267s-.1-.336-.16-.659-.09-.66-.09-.66q.118-1.423.176-2.862a4.115,4.115,0,0,1,.159-.532A4.512,4.512,0,0,1,1092.982,493.282Z" transform="translate(-1092.403 -491.208)" fill="#08582e"/></g><g transform="translate(569.576 456.18)"><path d="M1054.983,547.4a64.633,64.633,0,0,0,1.973-10.361s.063.773.078,1.372.015.9.015.9a64.65,64.65,0,0,1-1.488,7.4s-.1.15-.248.33A4.4,4.4,0,0,1,1054.983,547.4Z" transform="translate(-1040.97 -529.669)" fill="#08552d"/><path d="M1046.236,525.784a63.894,63.894,0,0,0,2.48-14.212s.1.318.174.638.116.531.116.531a64.062,64.062,0,0,1-2.288,12.743s-.1.072-.238.156S1046.236,525.784,1046.236,525.784Z" transform="translate(-1033.28 -507.285)" fill="#08542c"/><path d="M1038.216,514.188a63.115,63.115,0,0,0,2.723-16.3s.132.219.212.372.132.268.132.268a63.356,63.356,0,0,1-2.616,15.48s-.081.036-.224.092S1038.216,514.188,1038.216,514.188Z" transform="translate(-1026.23 -495.26)" fill="#08542c"/><path d="M1030.56,507.592a62.336,62.336,0,0,0,2.87-17.5s.1.09.2.2.157.171.157.171a62.622,62.622,0,0,1-2.8,17.026s-.084.024-.215.057S1030.56,507.592,1030.56,507.592Z" transform="translate(-1019.5 -488.399)" fill="#08532c"/><path d="M1023.136,503.466a61.546,61.546,0,0,0,2.973-18.258s.083.049.19.12.174.12.174.12a61.837,61.837,0,0,1-2.916,17.952l-.2.034C1023.253,503.451,1023.136,503.466,1023.136,503.466Z" transform="translate(-1012.974 -484.11)" fill="#07522b"/><path d="M1017.666,495.716q-.584,2.477-1.375,4.9l-.412.036q.663-2.009,1.188-4.079a2.042,2.042,0,0,0,.305-.342A2.454,2.454,0,0,0,1017.666,495.716Zm.621-5.268a61.257,61.257,0,0,0,.64-8.545s.068.027.184.079.182.086.182.086a61.637,61.637,0,0,1-1.093,11.143s.07-.691.08-1.441S1018.287,490.448,1018.287,490.448Z" transform="translate(-1006.594 -481.205)" fill="#07512b"/><path d="M1010.258,494.939q-.492,1.879-1.107,3.727l-.405.013q.589-1.754,1.071-3.554a1.681,1.681,0,0,0,.205-.075A2.214,2.214,0,0,0,1010.258,494.939Zm1.368-10.1q.225-2.584.228-5.227l.367.114a61.448,61.448,0,0,1-.348,6.407s-.037-.318-.111-.708A5.565,5.565,0,0,0,1011.626,484.837Z" transform="translate(-1000.325 -479.189)" fill="#07512b"/><path d="M1003.163,493.863q-.47,1.732-1.047,3.436l-.4-.005q.567-1.664,1.038-3.372s.083-.008.188-.023S1003.163,493.863,1003.163,493.863Zm1.582-11.809q.123-1.916.124-3.864c0-.052,0-.1,0-.154l.367.078v.077q0,2.177-.153,4.329a2.643,2.643,0,0,0-.151-.236A1.826,1.826,0,0,0,1004.746,482.053Z" transform="translate(-994.146 -477.804)" fill="#07502a"/><path d="M996.215,493.042q-.465,1.678-1.031,3.329l-.394-.025q.564-1.632,1.033-3.307s.057,0,.176,0S996.215,493.042,996.215,493.042Zm1.669-12.452q.092-1.642.092-3.307,0-.139,0-.278l.368.05q0,.114,0,.229,0,1.763-.1,3.51s-.1-.065-.185-.114S997.884,480.59,997.884,480.59Z" transform="translate(-988.056 -476.898)" fill="#074f2a"/><path d="M989.41,492.474q-.468,1.664-1.036,3.3s-.141-.015-.2-.023l-.182-.024q.571-1.636,1.046-3.316s.084.018.184.034S989.41,492.474,989.41,492.474Zm1.7-12.667q.079-1.518.08-3.056,0-.175,0-.351s.087,0,.182.012l.185.015q0,.161,0,.323,0,1.579-.083,3.145s-.08-.025-.186-.051S991.112,479.807,991.112,479.807Z" transform="translate(-982.077 -476.368)" fill="#074e2a"/><path d="M982.774,492.078q-.478,1.694-1.061,3.36l-.194-.036c-.08-.015-.183-.038-.183-.038q.595-1.69,1.085-3.429s.067.033.162.072S982.774,492.078,982.774,492.078Zm1.689-12.582q.076-1.475.076-2.969,0-.191,0-.381l.367.009q0,.186,0,.371,0,1.5-.076,2.993s-.086-.009-.185-.015S984.463,479.5,984.463,479.5Z" transform="translate(-976.23 -476.144)" fill="#074e29"/><path d="M977.97,479.506q.079-1.488.079-3,0-.188,0-.375l.367-.007q0,.191,0,.382,0,1.491-.076,2.971M976.354,491.7q-.5,1.792-1.12,3.553l-.188-.052c-.091-.026-.178-.053-.178-.053q.647-1.83,1.168-3.717a1.976,1.976,0,0,0,.157.145A1.83,1.83,0,0,0,976.354,491.7Z" transform="translate(-970.544 -476.128)" fill="#074d29"/><path d="M971.668,479.848q.089-1.567.089-3.157,0-.166,0-.332l.175-.013c.108-.008.192-.012.192-.012q0,.178,0,.356,0,1.538-.082,3.062M970.22,491.19q-.544,2.018-1.242,4l-.184-.072c-.079-.031-.168-.071-.168-.071q.757-2.145,1.34-4.368s.075.181.125.283S970.22,491.19,970.22,491.19Z" transform="translate(-965.057 -476.309)" fill="#074c29"/><path d="M965.6,480.729q.115-1.769.115-3.567,0-.123,0-.245l.18-.024c.11-.014.187-.022.187-.022q0,.145,0,.291,0,1.676-.1,3.335m-1.494,9.855q-.623,2.519-1.487,4.977s-.107-.058-.179-.1-.156-.093-.156-.093a53.88,53.88,0,0,0,1.657-5.716s.037.288.084.545S964.487,490.352,964.487,490.352Z" transform="translate(-959.817 -476.781)" fill="#074b28"/><path d="M959.77,482.836q.215-2.391.216-4.84c0-.034,0-.068,0-.1l.171-.035c.113-.023.2-.037.2-.037q0,.087,0,.175,0,2.022-.146,4.021a2.49,2.49,0,0,0-.225.337A3.425,3.425,0,0,0,959.77,482.836Zm-.5,5.977a53.319,53.319,0,0,1-1.9,6.91s-.069-.051-.167-.131-.145-.125-.145-.125a53.128,53.128,0,0,0,2.177-8.543s0,.551,0,1S959.275,488.813,959.275,488.813Z" transform="translate(-954.896 -477.616)" fill="#064b28"/><path d="M951.957,496.076A52.606,52.606,0,0,0,954.69,479.4s.022-.008.168-.051.2-.056.2-.056a52.943,52.943,0,0,1-2.819,17.132s-.07-.076-.156-.184S951.957,496.076,951.957,496.076Z" transform="translate(-950.404 -478.91)" fill="#064a28"/><path d="M947.487,497.041a51.791,51.791,0,0,0,2.467-15.43s.062-.029.169-.075.2-.081.2-.081a52.121,52.121,0,0,1-2.592,16.061s-.066-.117-.133-.247S947.487,497.041,947.487,497.041Z" transform="translate(-946.475 -480.811)" fill="#064927"/><path d="M943.736,498.546a51,51,0,0,0,2.11-13.716s.042-.031.167-.109.2-.121.2-.121a51.32,51.32,0,0,1-2.28,14.583l-.114-.342C943.785,498.726,943.736,498.546,943.736,498.546Z" transform="translate(-943.177 -483.575)" fill="#064827"/><path d="M940.827,500.971a50.209,50.209,0,0,0,1.64-11.279s.031-.039.153-.162.225-.209.225-.209a50.532,50.532,0,0,1-1.868,12.531s-.056-.268-.09-.489Z" transform="translate(-940.62 -487.725)" fill="#064827"/><path d="M939.116,505.45a49.433,49.433,0,0,0,.98-7.3s.067-.16.176-.363.232-.4.232-.4a49.746,49.746,0,0,1-1.315,9.45s-.04-.537-.05-.782Z" transform="translate(-939.116 -494.815)" fill="#064726"/><path d="M939.753,518.752q-.141,1.47-.37,2.923s.061-.971.152-1.665S939.753,518.752,939.753,518.752Z" transform="translate(-939.351 -513.597)" fill="#064626"/></g><g transform="translate(545.041 456.53)"><path d="M910.222,622.985q.326-.778.626-1.57l.04.943q-.125.314-.255.627Z" transform="translate(-889.182 -604.193)" fill="#064626"/><path d="M902.986,607.354q.779-1.822,1.409-3.72l.044,1.036q-.461,1.3-1,2.582l-.043.1Z" transform="translate(-882.821 -588.563)" fill="#064526"/><path d="M895.727,589.743a46.622,46.622,0,0,0,2.184-6.144l.05,1.175a47.278,47.278,0,0,1-1.642,4.549q-.088.21-.178.419Z" transform="translate(-876.44 -570.951)" fill="#064425"/><path d="M888.444,568.912a45.842,45.842,0,0,0,2.942-9.009l.06,1.409a46.254,46.254,0,0,1-2.271,6.865q-.155.369-.316.735Z" transform="translate(-870.038 -550.121)" fill="#064425"/><path d="M883.325,540.834a45.052,45.052,0,0,0,3.4-12.2l.082,1.928a45.362,45.362,0,0,1-2.873,9.812q-.222.529-.457,1.051h-.129" transform="translate(-865.538 -522.635)" fill="#054325"/><path d="M882.663,499.915a44.4,44.4,0,0,0,3.062-15.657,1.881,1.881,0,0,1,.228.912l.057,1.316a44.6,44.6,0,0,1-3.307,14.341Z" transform="translate(-864.956 -483.625)" fill="#054224"/><path d="M881.985,493.618a43.659,43.659,0,0,0,2.344-14.118,1.753,1.753,0,0,1,.2.064,1.393,1.393,0,0,1,.165.079,43.948,43.948,0,0,1-2.67,14.989Z" transform="translate(-864.36 -479.442)" fill="#054124"/><path d="M881.19,490.812a42.923,42.923,0,0,0,1.635-11.768v-.02h.367v.019a43.237,43.237,0,0,1-1.956,12.926Z" transform="translate(-863.661 -479.024)" fill="#054124"/><path d="M880.238,487.952a42.232,42.232,0,0,0,.945-8.909v-.019h.367v.019a42.592,42.592,0,0,1-1.256,10.319Z" transform="translate(-862.824 -479.024)" fill="#054023"/><path d="M878.932,484.031a41.682,41.682,0,0,0,.3-4.988v-.019h.367v.019a42.092,42.092,0,0,1-.584,7.018Z" transform="translate(-861.676 -479.024)" fill="#053f23"/><path d="M873.25,482.893q.18-1.9.181-3.851v-.018h.367v.018q0,1.622-.124,3.223H873.4Z" transform="translate(-856.681 -479.024)" fill="#053e22"/><path d="M839.671,495.211a39.515,39.515,0,0,0,3.438-16.17v-.017h.367v.017a39.867,39.867,0,0,1-3.107,15.51q-.116.275-.235.548a1.844,1.844,0,0,1-.217.068A2.269,2.269,0,0,1,839.671,495.211Z" transform="translate(-827.164 -479.024)" fill="#053e22"/><path d="M832.29,495.226a38.7,38.7,0,0,0,3.526-16.186s.054-.007.145-.013.222,0,.222,0v.016a39.056,39.056,0,0,1-3.044,15.195q-.21.5-.433.993Z" transform="translate(-820.675 -479.022)" fill="#053d22"/><path d="M824.939,496.143a37.871,37.871,0,0,0,3.608-15.867,1.168,1.168,0,0,1,.156-.108,1.451,1.451,0,0,1,.212-.1,38.24,38.24,0,0,1-2.981,14.769q-.278.661-.578,1.309Z" transform="translate(-814.213 -479.939)" fill="#053c21"/><path d="M817.553,502.024a37,37,0,0,0,3.608-13.571s.091-.365.205-.85a4.1,4.1,0,0,1,.242-.848A37.383,37.383,0,0,1,818.7,500.4q-.345.823-.727,1.625Z" transform="translate(-807.721 -485.82)" fill="#043b21"/><path d="M810.344,540.2a36.154,36.154,0,0,0,1.556-3.623l.121.745q-.192.5-.4.989-.414.985-.88,1.939s-.128-.006-.222-.019S810.344,540.2,810.344,540.2Zm2.48-5.185a36.4,36.4,0,0,0,1.139-4.772Z" transform="translate(-801.383 -524.049)" fill="#043b21"/><path d="M804.425,574.287a35.36,35.36,0,0,0,1.968-4.845l.151.736q-.393,1.149-.866,2.275-.439,1.047-.941,2.06a1.357,1.357,0,0,1-.165-.1A1.314,1.314,0,0,1,804.425,574.287Z" transform="translate(-796.18 -558.506)" fill="#043a20"/><path d="M800.66,562.124a34.526,34.526,0,0,0,2.048-5.484l.178.73a34.982,34.982,0,0,1-1.26,3.513q-.374.892-.794,1.757a1.471,1.471,0,0,1-.093-.223A3,3,0,0,1,800.66,562.124Z" transform="translate(-792.871 -547.253)" fill="#043920"/><path d="M798.093,548.779a33.731,33.731,0,0,0,1.952-5.883l.192.788a34.149,34.149,0,0,1-1.609,4.8q-.188.449-.389.891Z" transform="translate(-790.614 -535.171)" fill="#043820"/><path d="M766.883,540.686h-.247q.132-.191.261-.384Zm5.276-12.024a33.269,33.269,0,0,1-1.889,6.146l-.153-.62a32.909,32.909,0,0,0,1.83-6.395Z" transform="translate(-762.962 -521.894)" fill="#04371f"/><path d="M764.518,511.652a32.4,32.4,0,0,1-1.745,6.746l-.16-.65a32.14,32.14,0,0,0,1.663-7.088Zm-6.033,13.973q.686-.959,1.3-1.969l-.027.766q-.389.61-.805,1.2Z" transform="translate(-755.797 -506.834)" fill="#04371f"/><path d="M750.227,507.492a31.5,31.5,0,0,0,2.361-3.683l-.029.829a31.469,31.469,0,0,1-1.856,2.855Zm6.477-16.245a31.646,31.646,0,0,1-1.539,7.594l-.17-.687a31.439,31.439,0,0,0,1.413-8.122Z" transform="translate(-748.537 -488.7)" fill="#04361f"/><path d="M748.63,480.862a31.042,31.042,0,0,1-1.2,8.157l-.182-.742a30.715,30.715,0,0,0,1.02-7.7,1.438,1.438,0,0,1,.21.137A1.313,1.313,0,0,1,748.63,480.862Zm-6.781,18.32a30.678,30.678,0,0,0,3.441-5.583l-.032.919a30.736,30.736,0,0,1-2.926,4.664Z" transform="translate(-741.173 -480.391)" fill="#04351e"/><path d="M736.274,497.347a29.829,29.829,0,0,0,4.176-7.306l-.037,1.067a30,30,0,0,1-4.02,6.707h-.137Zm6.637-18.286a30.375,30.375,0,0,1-.8,6.95l-.2-.813a29.993,29.993,0,0,0,.637-6.166v-.008s.111,0,.192.012S742.911,479.061,742.911,479.061Z" transform="translate(-736.256 -479.024)" fill="#04341e"/><path d="M736.678,495.921a28.959,28.959,0,0,0,4.214-8.618l-.047,1.367q-.309.894-.677,1.771a29.235,29.235,0,0,1-3.517,6.165Zm5.776-16.9v.007a29.727,29.727,0,0,1-.448,5.16l-.227-.923a29.285,29.285,0,0,0,.307-4.238v-.007Z" transform="translate(-736.603 -479.024)" fill="#03341e"/><path d="M737.161,494.4a28.092,28.092,0,0,0,4.32-11.8l-.095,2.7a28.59,28.59,0,0,1-4.254,9.829Zm4.911-15.378v.007a29.155,29.155,0,0,1-.179,3.234h-.372a28.529,28.529,0,0,0,.183-3.234v-.007Z" transform="translate(-737.026 -479.024)" fill="#03331d"/><path d="M737.68,492.754a27.322,27.322,0,0,0,3.674-13.724v-.006h.367v.006a27.754,27.754,0,0,1-4.073,14.519Z" transform="translate(-737.48 -479.024)" fill="#03321d"/><path d="M738.253,490.92a26.524,26.524,0,0,0,2.8-11.891v-.005h.367v.005a26.9,26.9,0,0,1-2.1,10.464q-.5,1.188-1.1,2.315Z" transform="translate(-737.981 -479.024)" fill="#03311d"/><path d="M738.906,488.784a25.743,25.743,0,0,0,1.908-9.755v0h.367v0a26.085,26.085,0,0,1-2.033,10.148q-.137.327-.283.65Z" transform="translate(-738.549 -479.024)" fill="#03311c"/><path d="M739.706,486.275a25,25,0,0,0,.994-6.857,1.466,1.466,0,0,1,.165-.063,1.959,1.959,0,0,1,.2-.05,25.305,25.305,0,0,1-1.416,8.363Z" transform="translate(-739.24 -479.271)" fill="#03301c"/><path d="M741.283,483.093s-.184,2.916-.466,4.335c0,0,.125-3.162.126-3.192A2.1,2.1,0,0,1,741.283,483.093Z" transform="translate(-740.265 -482.601)" fill="#032f1c"/></g><g transform="translate(521.793 456.53)"><g transform="translate(0 0)"><path d="M595.487,556.269q-.161.173-.329.342a14.563,14.563,0,0,1-4.641,3.156l-.083.035.143-.466a14.333,14.333,0,0,0,5.134-3.886Z" transform="translate(-584.823 -546.206)" fill="#022618"/><path d="M544.034,543.332m11.189-5.391a13.973,13.973,0,0,1-1.423,1.68,13.773,13.773,0,0,1-3.839,2.734l.15-.489a13.581,13.581,0,0,0,5.433-5.092Z" transform="translate(-544.034 -529.79)" fill="#022517"/><path d="M715.821,628.835q.336-.376.658-.765l.133.435q-.14.166-.283.33Z" transform="translate(-695.044 -610.044)" fill="#03331d"/><path d="M708.371,620.825q-.522.642-1.084,1.254h-.519q.768-.816,1.468-1.695Z" transform="translate(-687.086 -603.288)" fill="#03321d"/><path d="M699.913,613.054A27.031,27.031,0,0,1,698,615.245h-.532a26.683,26.683,0,0,0,2.3-2.635Z" transform="translate(-678.915 -596.454)" fill="#03311d"/><path d="M691.48,605.14a26.233,26.233,0,0,1-2.4,2.787q-.178.179-.358.354h-.5l-.01-.037a25.861,25.861,0,0,0,3.132-3.556Z" transform="translate(-670.773 -589.489)" fill="#03311c"/><path d="M689.407,597.1a25.36,25.36,0,0,1-2.677,3.178q-.212.214-.428.421l-.115-.416a25.043,25.043,0,0,0,3.078-3.644Z" transform="translate(-668.995 -582.415)" fill="#03301c"/><path d="M685.189,580.514a23.635,23.635,0,0,1-2.99,3.8l-.117-.424a23.4,23.4,0,0,0,2.96-3.855Z" transform="translate(-665.386 -567.817)" fill="#032e1b"/><path d="M683.036,571.9a22.753,22.753,0,0,1-2.925,3.92l-.119-.429a22.584,22.584,0,0,0,2.893-3.983Z" transform="translate(-663.549 -560.236)" fill="#032e1b"/><path d="M680.848,563.017a21.906,21.906,0,0,1-2.855,4.061l-.12-.435a21.751,21.751,0,0,0,2.82-4.131Z" transform="translate(-661.686 -552.414)" fill="#032d1b"/><path d="M675.044,553.794a21.1,21.1,0,0,1-2.89,4.358h-.5a20.924,20.924,0,0,0,3.23-4.883Z" transform="translate(-656.218 -544.289)" fill="#022c1a"/><path d="M612.585,544.141a20.318,20.318,0,0,1-3.62,5.5h-.516a20.113,20.113,0,0,0,3.968-6.053Zm-10.152,10.244q-.214.1-.43.189h-1q.8-.3,1.563-.662Z" transform="translate(-594.11 -535.783)" fill="#022b1a"/><path d="M684.146,592.175a24.236,24.236,0,0,0,3.021-3.743l.143.469a24.486,24.486,0,0,1-2.944,3.589l-.1.1Z" transform="translate(-667.2 -575.2)" fill="#032f1c"/><path d="M591.341,533.921q-.092.237-.191.472a19.534,19.534,0,0,1-4.164,6.224l-.014.015h-.535a19.294,19.294,0,0,0,4.726-7.293Zm-9.5,10.418q-.507.252-1.031.476a19.258,19.258,0,0,1-2.068.746h-1.487a18.834,18.834,0,0,0,4.721-1.71Z" transform="translate(-573.236 -526.77)" fill="#022b1a"/><path d="M592.059,522.921q-.239.731-.538,1.444a18.73,18.73,0,0,1-3.991,5.967q-.3.3-.61.588h-.562a18.511,18.511,0,0,0,2.886-3.214h.292l-.083-.3a18.412,18.412,0,0,0,2.414-5.114Zm-8.808,10.638q-.8.437-1.64.8a18.383,18.383,0,0,1-3.092,1.008l.125-.41a18.066,18.066,0,0,0,4.748-1.9" transform="translate(-574.348 -517.058)" fill="#022a19"/><path d="M590.715,516.952A18.071,18.071,0,0,1,588.962,519q-.609.614-1.267,1.162h-.6a17.688,17.688,0,0,0,3.148-3.214m.922-1.343a17.578,17.578,0,0,0,2.247-5.552l.215.7A18.042,18.042,0,0,1,591.3,516.1Zm-5.608,6.083a17.765,17.765,0,0,1-4.764,2.015l.128-.418a17.311,17.311,0,0,0,4.784-2.132" transform="translate(-576.35 -506.304)" fill="#022919"/><path d="M591.744,504.454a17.328,17.328,0,0,1-3.317,3.214h-.4l-.1.355a16.973,16.973,0,0,1-4.806,2.268l.13-.426a16.7,16.7,0,0,0,8.012-5.411m1.651-2.425a16.758,16.758,0,0,0,2.018-6.189l.254.829a17.2,17.2,0,0,1-2.132,5.869" transform="translate(-578.393 -493.805)" fill="#022819"/><path d="M592.786,492.266q-.4.466-.833.9a16.164,16.164,0,0,1-5.152,3.5q-.645.275-1.307.492l.133-.436a15.894,15.894,0,0,0,6.661-4.463m2.4-3.562a15.979,15.979,0,0,0,1.644-6.729,1.23,1.23,0,0,1,.208.261,1.7,1.7,0,0,1,.138.3,16.309,16.309,0,0,1-1.25,5.442q-.271.645-.593,1.262" transform="translate(-580.48 -481.617)" fill="#022718"/><path d="M596.493,484.992a15.192,15.192,0,0,0,1.176-5.861,1.328,1.328,0,0,1,.179.029,1.29,1.29,0,0,1,.188.053,15.538,15.538,0,0,1-1.211,5.948q-.085.2-.175.4m-2.809,4.2q-.157.167-.318.33a15.364,15.364,0,0,1-4.9,3.329q-.347.148-.7.279l.138-.449a15.085,15.085,0,0,0,5.259-3.489" transform="translate(-582.618 -479.118)" fill="#022718"/><path d="M655.81,483.552a14.408,14.408,0,0,0,.727-4.528h.367a14.744,14.744,0,0,1-.931,5.176Z" transform="translate(-642.291 -479.024)" fill="#022618"/><path d="M652.31,482.156h-.149a13.636,13.636,0,0,0,.364-3.132h.367a14,14,0,0,1-.485,3.663Z" transform="translate(-639.084 -479.024)" fill="#022517"/><path d="M602.526,479.024a13.206,13.206,0,0,1-.375,3.132h-.138l-.365,1.6q-.069.18-.144.359a13.129,13.129,0,0,1-5.723,6.39l.16-.521a12.765,12.765,0,0,0,6.218-10.962Z" transform="translate(-589.523 -479.024)" fill="#012417"/><path d="M604.3,479.024a12.322,12.322,0,0,1-5.586,10.326l.174-.569a11.951,11.951,0,0,0,5.045-9.757Z" transform="translate(-592.098 -479.024)" fill="#012417"/><path d="M606.329,479.024a11.517,11.517,0,0,1-4.391,9.051l.2-.648a11.134,11.134,0,0,0,3.826-8.4Z" transform="translate(-594.935 -479.024)" fill="#012316"/><path d="M608.825,479.237a10.682,10.682,0,0,1-3.1,7.51l-.032.032.249-.813a10.311,10.311,0,0,0,2.515-6.612,1.387,1.387,0,0,1,.169-.067A1.437,1.437,0,0,1,608.825,479.237Z" transform="translate(-598.236 -479.211)" fill="#012216"/><path d="M612.451,482.816a9.876,9.876,0,0,1-1.706,5.114l.509-1.663a9.472,9.472,0,0,0,.7-2.3s.178-.629.254-.805A1.37,1.37,0,0,1,612.451,482.816Z" transform="translate(-602.677 -482.357)" fill="#012116"/></g></g><g transform="translate(519.741 462.406)"><g transform="translate(0 0)"><path d="M527.068,630.249a18.292,18.292,0,0,0,4.14,0v.371a18.866,18.866,0,0,1-4.14,0Z" transform="translate(-527.068 -617.832)" fill="#022a19"/><path d="M527.068,623.5a17.493,17.493,0,0,0,4.14,0v.371a18.059,18.059,0,0,1-4.14,0Z" transform="translate(-527.068 -611.896)" fill="#022919"/><path d="M527.068,616.739a16.671,16.671,0,0,0,4.14,0v.372a17.226,17.226,0,0,1-4.14,0Z" transform="translate(-527.068 -605.955)" fill="#022819"/><path d="M527.068,609.977a15.871,15.871,0,0,0,4.14,0v.372a16.406,16.406,0,0,1-4.14,0Z" transform="translate(-527.068 -600.011)" fill="#022718"/><path d="M527.068,603.209a15.055,15.055,0,0,0,4.14,0v.372a15.583,15.583,0,0,1-4.14,0Z" transform="translate(-527.068 -594.061)" fill="#022718"/><path d="M527.068,596.432a14.243,14.243,0,0,0,4.14-.005v.373a14.753,14.753,0,0,1-4.14.005Z" transform="translate(-527.068 -588.103)" fill="#022618"/><path d="M527.068,589.649a13.439,13.439,0,0,0,4.14-.006v.373a13.932,13.932,0,0,1-4.14.005Z" transform="translate(-527.068 -582.14)" fill="#022517"/><path d="M527.068,582.854a12.621,12.621,0,0,0,4.14-.006v.374a13.1,13.1,0,0,1-4.14.006Z" transform="translate(-527.068 -576.167)" fill="#012417"/><path d="M527.068,576.047a11.813,11.813,0,0,0,4.14-.007v.375a12.286,12.286,0,0,1-4.14.007Z" transform="translate(-527.068 -570.182)" fill="#012417"/><path d="M527.068,569.226a11.011,11.011,0,0,0,4.14-.008v.376a11.47,11.47,0,0,1-4.14.007Z" transform="translate(-527.068 -564.185)" fill="#012316"/><path d="M527.068,562.385a10.2,10.2,0,0,0,4.14-.009v.377a10.644,10.644,0,0,1-4.14.008" transform="translate(-527.068 -558.171)" fill="#012216"/><path d="M527.068,555.521a9.392,9.392,0,0,0,4.14-.01v.378a9.831,9.831,0,0,1-4.14.009Z" transform="translate(-527.068 -552.136)" fill="#012116"/><path d="M527.068,548.625a8.587,8.587,0,0,0,4.14-.011v.38a9.007,9.007,0,0,1-4.14.011Z" transform="translate(-527.068 -546.073)" fill="#012115"/><path d="M531.208,542.058a8.189,8.189,0,0,1-4.14.012v-.382a7.779,7.779,0,0,0,4.14-.013Z" transform="translate(-527.068 -539.974)" fill="#012015"/><path d="M527.068,534.7a6.973,6.973,0,0,0,4.14-.015v.386a7.373,7.373,0,0,1-4.14.014Z" transform="translate(-527.068 -533.825)" fill="#011f15"/><path d="M531.208,527.995a6.56,6.56,0,0,1-4.14.016v-.39a6.164,6.164,0,0,0,4.14-.018Z" transform="translate(-527.068 -527.604)" fill="#011e14"/></g></g><circle cx="3.1" cy="3.1" r="3.1" transform="translate(518.733 453.436)" fill="#00aa45"/></g></svg>