<svg xmlns="http://www.w3.org/2000/svg" width="28" height="28" viewBox="0 0 28 28">
  <g id="Group_1578" data-name="Group 1578" transform="translate(-960 -108)">
    <rect id="Rectangle_2849" data-name="Rectangle 2849" width="28" height="28" rx="7" transform="translate(960 108)" fill="#00aa45"/>
    <g id="Group_222" data-name="Group 222" transform="translate(896 110)">
      <path id="Path_50" data-name="Path 50" d="M18.5,5.5a3.565,3.565,0,0,0-4.9,0L5.1,14a.367.367,0,0,0-.1.3H5l-.5,5.3L9.7,19h0c.1,0,.2-.1.3-.1l8.5-8.5A3.566,3.566,0,0,0,18.5,5.5Zm-.7.7a2.553,2.553,0,0,1,.3,3.1L14.7,5.9A2.567,2.567,0,0,1,17.8,6.2ZM14,6.6,15.3,8,7.5,15.8,6.1,14.4ZM5.9,15.4l2.7,2.7-3,.3Zm3.8,2.4L8.3,16.4,16,8.7l1.4,1.4Z" transform="translate(66.5)" fill="#fff"/>
    </g>
  </g>
</svg>
