<svg id="Group_286" data-name="Group 286" xmlns="http://www.w3.org/2000/svg" width="35.525" height="33.479" viewBox="0 0 35.525 33.479">
  <path id="Path_286" data-name="Path 286" d="M297.726,185.176h-3.392v-3.4l1.552-1.518.9-.033.348-1.239,1-.262.1-.847,1.855-1.853a5.511,5.511,0,0,1-.22-1.538,5.15,5.15,0,1,1,5.15,5.146,5.917,5.917,0,0,1-1.544-.225ZM295.9,183.61h1.176l5.951-5.964.655.2a4.747,4.747,0,0,0,1.34.228,3.582,3.582,0,1,0-3.583-3.58,4.056,4.056,0,0,0,.221,1.305l.222.66-2.154,2.151-.166,1.367-1.167.3-.413,1.474-1.434.053-.648.633Z" transform="translate(-287.835 -163.488)" fill="#00aa45"/>
  <path id="Path_287" data-name="Path 287" d="M305.22,174.983a1.245,1.245,0,1,1,1.246-1.246A1.232,1.232,0,0,1,305.22,174.983Zm0-1.477a.231.231,0,1,0,.232.231A.242.242,0,0,0,305.22,173.506Z" transform="translate(-287.408 -163.348)" fill="#00aa45"/>
  <path id="Path_288" data-name="Path 288" d="M306.728,189.478c0-.287.018-.57.044-.85a11.977,11.977,0,1,1,6.825-8.016,9.176,9.176,0,0,1,2.21-.3,14.035,14.035,0,1,0-8.967,10.521A9.2,9.2,0,0,1,306.728,189.478Z" transform="translate(-288.111 -163.736)" fill="#00aa45"/>
  <path id="Path_289" data-name="Path 289" d="M315.047,196.451a7.737,7.737,0,1,1,7.737-7.737A7.747,7.747,0,0,1,315.047,196.451Zm0-13.386a5.649,5.649,0,1,0,5.649,5.649A5.655,5.655,0,0,0,315.047,183.065Z" transform="translate(-287.26 -162.972)" fill="#00aa45"/>
  <path id="Path_300" data-name="Path 300" d="M319.333,189.79l-1.486-2.356-2.357,1.488.419.661,1.227-.774a2.37,2.37,0,1,1-2.341-2.708v-.783a3.158,3.158,0,1,0,3.106,3.67l.771,1.221Z" transform="translate(-287.068 -162.779)" fill="#00aa45"/>
</svg>
