<svg xmlns="http://www.w3.org/2000/svg" width="37.902" height="37.901" viewBox="0 0 37.902 37.901">
  <g id="Group_305" data-name="Group 305" opacity="0.9">
    <path id="Path_312" data-name="Path 312" d="M169.363,171.391a18.95,18.95,0,1,0,18.951,18.951A18.951,18.951,0,0,0,169.363,171.391Zm.039,35.616a16.665,16.665,0,1,1,16.665-16.665A16.664,16.664,0,0,1,169.4,207.007Z" transform="translate(-150.412 -171.391)" fill="#dc00e8"/>
    <g id="Group_304" data-name="Group 304" transform="translate(12.085 9.327)">
      <path id="Path_313" data-name="Path 313" d="M167.432,190.071a11.713,11.713,0,0,1-4.665-2.264,4.326,4.326,0,0,1-1.46-3.318,4.566,4.566,0,0,1,1.784-3.691,7.091,7.091,0,0,1,4.641-1.46,7.768,7.768,0,0,1,3.472.752,5.709,5.709,0,0,1,2.361,2.077,5.3,5.3,0,0,1,.837,2.894h-2.5a3.454,3.454,0,0,0-1.09-2.7,4.435,4.435,0,0,0-3.076-.985,4.546,4.546,0,0,0-2.874.812,2.718,2.718,0,0,0-1.034,2.257,2.442,2.442,0,0,0,.981,1.958,9.65,9.65,0,0,0,3.335,1.462,15.4,15.4,0,0,1,3.686,1.462,5.577,5.577,0,0,1,1.973,1.86,4.755,4.755,0,0,1,.642,2.506,4.416,4.416,0,0,1-1.791,3.679,7.638,7.638,0,0,1-4.79,1.383,8.9,8.9,0,0,1-3.634-.745,6.121,6.121,0,0,1-2.6-2.044,4.989,4.989,0,0,1-.914-2.947h2.506a3.248,3.248,0,0,0,1.265,2.705,5.323,5.323,0,0,0,3.38.994,4.9,4.9,0,0,0,3.024-.805,2.61,2.61,0,0,0,1.05-2.195,2.563,2.563,0,0,0-.974-2.147A11.22,11.22,0,0,0,167.432,190.071Z" transform="translate(-160.709 -179.338)" fill="#dc00e8"/>
    </g>
  </g>
</svg>
